<svg width="38" height="33" viewBox="0 0 38 33" xmlns="http://www.w3.org/2000/svg" xmlns:xlink="http://www.w3.org/1999/xlink" class="social">
                                <defs>
                                    <path id="a" d="M.096 32.714H37.96V.202H.096v32.512z"></path></defs>

                                <g fill="none" fill-rule="evenodd">
                                    <path d="M37.7 6.054L25.708.044c-.055-.028-.114-.04-.173-.043h-.012c-.146 0-.29.073-.37.2L17.76 12.244l8.252 13.442L37.816 6.46c.088-.144.034-.33-.115-.406" fill="#FFF" class="colorize"></path><mask id="b" fill="#fff"><use xlink:href="#a"></use></mask><path fill="#FFF" mask="url(#b)" class="colorize" d="M13.833 8.07v12.974L25.34 26.81 13.832 8.07M26.345 27.307l10.566 5.295c.578.29 1.05-.003 1.05-.65V8.39l-11.615 18.92M12.562 6.174L.795.277C.695.227.598.202.51.202.39.202.284.252.21.34.138.427.096.553.096.71v25.317c0 .43.314.94.7 1.134l10.873 5.45c.15.076.294.112.424.112.367 0 .624-.284.624-.76V6.426c0-.107-.06-.205-.156-.253"></path>
                                </g>
                            </svg>
