<svg class="social" width="38px" height="38px" viewBox="0 0 38 38" version="1.1" xmlns="http://www.w3.org/2000/svg" xmlns:xlink="http://www.w3.org/1999/xlink">
        <g id="Page-1" stroke="none" stroke-width="1" fill="none" fill-rule="evenodd">
            <g id="Group" fill="#FFFFFF" class="colorize">
                <path d="M21.5669297,19 L17.21875,19 L17.21875,14.25 L21.5669297,14.25 C22.838,14.25 23.86875,15.314 23.86875,16.625 C23.86875,17.936 22.838,19 21.5669297,19 Z" class="colorize"></path>
                <g id="product-hunt" fill-rule="nonzero">
                    <path d="M19,38 C8.50635937,38 0,29.4936406 0,19 C0,8.50635937 8.50635938,0 19,0 C29.4936406,0 38,8.50635937 38,19 C38,29.4936406 29.4936406,38 19,38 Z M14.25,11.4 L14.25,26.6 L17.1,26.6 L17.1,21.85 L21.413,21.85 C24.27725,21.774 26.6,19.45125 26.6,16.625 C26.6,13.72275 24.27725,11.4 21.413,11.4 L14.25,11.4 L14.25,11.4 Z" class="colorize"></path>
                </g>
            </g>
        </g>
    </svg>
