<svg xmlns="http://www.w3.org/2000/svg" width="35" height="35" viewBox="0 0 35 35" class="social">
                        <g fill="#fff" fill-rule="evenodd">
                            <path fill="#fff" d="M32.984 34.906c1.06 0 1.922-.86 1.922-1.922V2.002c0-1.062-.86-1.923-1.922-1.923H2.002C.94.08.08.94.08 2v30.982c0 1.062.86 1.922 1.922 1.922h30.982z" class="colorize"></path>
                            <path fill="#0B1129" d="M24.11 34.906V21.42h4.526l.678-5.257H24.11v-3.355c0-1.522.422-2.56 2.604-2.56h2.783v-4.7c-.48-.065-2.133-.21-4.055-.21-4.013 0-6.76 2.45-6.76 6.95v3.875h-4.54v5.256h4.54v13.485h5.427z"></path>
                        </g>
                    </svg>
