<svg xmlns="http://www.w3.org/2000/svg" width="37" height="37" viewBox="0 0 37 37" class="social">
        <g fill="#FFF" fill-rule="evenodd" class="colorize">
            <path class="colorize" d="M18.5 3.338c4.938 0 5.523.02 7.473.108 1.803.082 2.783.383 3.434.637.864.335 1.48.736 2.127 1.383.647.647 1.048 1.263 1.383 2.127.253.65.555 1.63.637 3.434.09 1.95.108 2.535.108 7.473s-.02 5.523-.108 7.473c-.082 1.803-.384 2.783-.637 3.434-.335.864-.736 1.48-1.383 2.127-.647.647-1.263 1.048-2.127 1.383-.65.253-1.63.555-3.434.637-1.95.09-2.535.108-7.473.108s-5.523-.02-7.473-.108c-1.803-.082-2.783-.384-3.434-.637-.864-.335-1.48-.736-2.127-1.383-.647-.647-1.048-1.263-1.383-2.127-.254-.65-.555-1.63-.637-3.434-.09-1.95-.108-2.535-.108-7.473s.02-5.523.108-7.473c.082-1.803.383-2.783.637-3.434.335-.864.736-1.48 1.383-2.127.647-.647 1.263-1.048 2.127-1.383.65-.254 1.63-.555 3.434-.637 1.95-.09 2.535-.108 7.473-.108m0-3.332c-5.023 0-5.652.02-7.625.11-1.97.09-3.313.404-4.49.86C5.17 1.45 4.14 2.083 3.11 3.11 2.082 4.138 1.45 5.17.977 6.386c-.457 1.176-.77 2.52-.86 4.49-.09 1.97-.11 2.6-.11 7.624 0 5.023.02 5.653.11 7.625.09 1.97.403 3.313.86 4.49.472 1.215 1.105 2.247 2.133 3.275s2.06 1.66 3.276 2.133c1.176.457 2.52.77 4.49.86 1.972.09 2.6.11 7.624.11 5.023 0 5.653-.02 7.625-.11 1.97-.09 3.313-.403 4.49-.86 1.216-.472 2.247-1.105 3.275-2.133s1.66-2.06 2.133-3.276c.457-1.176.77-2.52.86-4.49.09-1.97.11-2.6.11-7.624 0-5.023-.02-5.653-.11-7.625-.09-1.97-.403-3.313-.86-4.49C35.55 5.17 34.918 4.14 33.89 3.11S31.83 1.45 30.614.977c-1.176-.457-2.52-.77-4.49-.86-1.97-.09-2.6-.11-7.624-.11"></path>
            <path class="colorize" d="M18.5 9.003c-5.245 0-9.497 4.252-9.497 9.497s4.252 9.497 9.497 9.497 9.497-4.252 9.497-9.497-4.252-9.497-9.497-9.497zm0 15.662c-3.405 0-6.165-2.76-6.165-6.165 0-3.405 2.76-6.165 6.165-6.165 3.405 0 6.165 2.76 6.165 6.165 0 3.405-2.76 6.165-6.165 6.165zM30.592 8.628c0 1.225-.994 2.22-2.22 2.22-1.225 0-2.22-.995-2.22-2.22 0-1.226.995-2.22 2.22-2.22 1.226 0 2.22.994 2.22 2.22"></path>
        </g>
    </svg>
