<svg class="social" xmlns="http://www.w3.org/2000/svg" width="39" height="32" viewBox="0 0 39 32">
        <path class="colorize" fill="#FFF" fill-rule="evenodd" d="M38.843 3.78c-1.43.64-2.965 1.074-4.577 1.27 1.645-.998 2.908-2.578 3.503-4.46-1.54.924-3.25 1.594-5.06 1.956C31.25.98 29.18 0 26.89 0c-4.4 0-7.968 3.61-7.968 8.062 0 .632.07 1.247.206 1.837-6.618-.34-12.49-3.55-16.42-8.43-.687 1.19-1.08 2.57-1.08 4.05 0 2.794 1.407 5.262 3.545 6.71-1.306-.04-2.535-.406-3.61-1.01v.1c0 3.906 2.747 7.164 6.392 7.905-.668.184-1.372.282-2.1.282-.513 0-1.01-.05-1.5-.146 1.016 3.204 3.958 5.535 7.446 5.6-2.73 2.163-6.16 3.45-9.9 3.45-.64 0-1.27-.037-1.9-.11 3.53 2.287 7.72 3.62 12.22 3.62 14.66 0 22.67-12.283 22.67-22.937 0-.35-.01-.697-.02-1.043 1.56-1.135 2.91-2.554 3.98-4.17"></path>
    </svg>
