<?xml version="1.0" encoding="UTF-8" standalone="no"?>
<svg width="340px" height="29px" viewBox="0 0 340 29" version="1.1" xmlns="http://www.w3.org/2000/svg" xmlns:xlink="http://www.w3.org/1999/xlink">
    <!-- Generator: Sketch 39.1 (31720) - http://www.bohemiancoding.com/sketch -->
    <title>TNDS-LOGO</title>
    <desc>Created with Sketch.</desc>
    <defs></defs>
    <g id="layout" stroke="none" stroke-width="1" fill="none" fill-rule="evenodd">
        <g id="about" transform="translate(-75.000000, -28.000000)" fill="#FFFFFF">
            <path d="M89.2076309,50.5548414 L89.2076309,37.172721 L85.7738575,33.2146291 L94.5315547,33.2146291 L94.5315547,28.2513074 L75,28.2513074 L84.0727221,38.7748058 L84.0727221,50.5548414 L89.2076309,50.5548414 Z M107.479085,50.5548414 L112.235964,50.5548414 L112.235964,34.8481273 L101.745629,34.8481273 L101.745629,28.2513074 L96.9887502,28.2513074 L96.9887502,50.5548414 L101.745629,50.5548414 L101.745629,39.5601415 L107.479085,39.5601415 L107.479085,50.5548414 L107.479085,50.5548414 Z M123.071514,50.8061488 C126.190262,50.8061488 128.741965,49.2983042 130.19108,47.0365375 L126.41078,44.4920497 C125.780729,45.6543466 124.709644,46.4710957 123.040011,46.4710957 C121.622398,46.4710957 119.826755,45.6543466 119.606238,43.5496469 L130.663618,43.5496469 C130.726623,43.0784454 130.758126,42.6072441 130.758126,42.1674561 C130.758126,37.2041344 127.16684,34.5968199 123.166021,34.5968199 C118.314635,34.5968199 115.038374,38.0837104 115.038374,42.7014843 C115.038374,47.5391522 118.913183,50.8061488 123.071514,50.8061488 L123.071514,50.8061488 L123.071514,50.8061488 Z M122.882499,38.3978447 C124.426122,38.3978447 125.812232,39.1203535 126.064252,40.7852652 L119.63774,40.7852652 C120.078776,38.9004596 121.748408,38.3978447 122.882499,38.3978447 L122.882499,38.3978447 L122.882499,38.3978447 Z M154.826041,50.5548414 L159.866443,50.5548414 L159.866443,28.2513074 L154.826041,28.2513074 L154.826041,39.2774207 L140.712918,28 L140.712918,50.5548414 L145.753319,50.5548414 L145.753319,38.6491522 L154.826041,45.905654 L154.826041,50.5548414 L154.826041,50.5548414 Z M170.955325,50.8061488 C174.074074,50.8061488 176.625777,49.2983042 178.074892,47.0365375 L174.294591,44.4920497 C173.66454,45.6543466 172.593456,46.4710957 170.923822,46.4710957 C169.506209,46.4710957 167.710567,45.6543466 167.490049,43.5496469 L178.54743,43.5496469 C178.610435,43.0784454 178.641937,42.6072441 178.641937,42.1674561 C178.641937,37.2041344 175.050651,34.5968199 171.049832,34.5968199 C166.198447,34.5968199 162.922185,38.0837104 162.922185,42.7014843 C162.922185,47.5391522 166.796994,50.8061488 170.955325,50.8061488 L170.955325,50.8061488 L170.955325,50.8061488 Z M170.76631,38.3978447 C172.309933,38.3978447 173.696044,39.1203535 173.948064,40.7852652 L167.521551,40.7852652 C167.962587,38.9004596 169.632219,38.3978447 170.76631,38.3978447 L170.76631,38.3978447 L170.76631,38.3978447 Z M186.580569,50.5548414 L199.843124,50.5548414 L205.450571,42.0418023 L205.450571,34.8481273 L200.693693,34.8481273 L200.693693,40.6281981 L197.228416,45.8428272 L195.558783,45.8428272 L195.558783,34.8481273 L190.801905,34.8481273 L190.801905,45.8428272 L189.163774,45.8428272 L185.730001,40.6281981 L185.730001,34.8481273 L180.973122,34.8481273 L180.973122,42.0418023 L186.580569,50.5548414 L186.580569,50.5548414 Z M220.948492,45.9684808 L220.948492,32.8376679 L223.752215,32.8376679 C227.501013,32.8376679 230.052716,35.8219436 230.052716,39.4030744 C230.052716,42.9842052 227.501013,45.9684808 223.752215,45.9684808 L220.948492,45.9684808 L220.948492,45.9684808 Z M215.908091,50.5548414 L223.752215,50.5548414 C230.052716,50.5548414 235.12462,45.5601063 235.12462,39.4030744 C235.12462,33.2460425 230.052716,28.2513074 223.752215,28.2513074 L215.908091,28.2513074 L215.908091,50.5548414 L215.908091,50.5548414 Z M238.054353,50.5548414 L242.842735,50.5548414 L242.842735,34.8481273 L238.054353,34.8481273 L238.054353,50.5548414 L238.054353,50.5548414 Z M247.568111,56.3349122 L261.177194,56.3349122 L261.177194,34.8481273 L256.420315,34.8481273 L256.420315,35.7905302 C255.506743,35.0366078 254.246642,34.5968199 252.95504,34.5968199 C248.198161,34.5968199 245.520448,38.3036044 245.520448,42.1360427 C245.520448,45.9684808 248.198161,49.6752654 252.95504,49.6752654 C254.246642,49.6752654 255.506743,49.2668908 256.420315,48.5129685 L256.420315,51.7171382 L247.568111,51.7171382 L247.568111,56.3349122 L247.568111,56.3349122 Z M253.58509,45.3402123 C251.474422,45.3402123 250.308829,43.7381275 250.308829,42.1360427 C250.308829,40.5339578 251.474422,38.931873 253.58509,38.931873 C254.750682,38.931873 255.72726,39.4030744 256.420315,40.251237 L256.420315,44.0208483 C255.72726,44.8690109 254.750682,45.3402123 253.58509,45.3402123 L253.58509,45.3402123 L253.58509,45.3402123 Z M264.925992,50.5548414 L269.714374,50.5548414 L269.714374,34.8481273 L264.925992,34.8481273 L264.925992,50.5548414 L264.925992,50.5548414 Z M272.233262,38.9946999 L274.280925,38.9946999 L274.280925,45.7171734 C274.280925,48.7014491 276.139572,50.5548414 279.100808,50.5548414 L283.448154,50.5548414 L283.448154,46.2197883 L280.864949,46.2197883 C279.573346,46.2197883 279.037803,45.68576 279.037803,44.366396 L279.037803,38.9946999 L282.975617,38.9946999 L284.015199,34.8481273 L279.037803,34.8481273 L279.037803,30.1361131 L274.280925,32.4921202 L274.280925,34.8481273 L271.193679,34.8481273 L272.233262,38.9946999 L272.233262,38.9946999 Z M296.647704,50.5548414 L301.404584,50.5548414 L301.404584,34.8481273 L296.647704,34.8481273 L296.647704,35.7905302 C295.734132,35.0366078 294.474031,34.5968199 293.182429,34.5968199 C288.520057,34.5968199 285.558822,38.3978447 285.558822,42.7014843 C285.558822,47.005124 288.520057,50.8061488 293.182429,50.8061488 C294.474031,50.8061488 295.734132,50.3977742 296.647704,49.6438519 L296.647704,50.5548414 L296.647704,50.5548414 Z M293.969991,46.4710957 C291.701811,46.4710957 290.347203,44.7747706 290.347203,42.7014843 C290.347203,40.6281981 291.701811,38.931873 293.969991,38.931873 C295.135585,38.931873 295.986152,39.4030744 296.647704,40.251237 L296.647704,45.1831451 C295.986152,46.0313077 295.135585,46.4710957 293.969991,46.4710957 L293.969991,46.4710957 L293.969991,46.4710957 Z M305.121879,50.5548414 L309.878758,50.5548414 L309.878758,28.2513074 L305.121879,28.2513074 L305.121879,50.5548414 L305.121879,50.5548414 Z M320.558108,41.8219084 L329.50482,41.8219084 L329.50482,45.5915197 L320.558108,45.5915197 L320.558108,50.5548414 L334.545221,50.5548414 L334.545221,36.9842405 L325.598509,36.9842405 L325.598509,33.2146291 L334.545221,33.2146291 L334.545221,28.2513074 L320.558108,28.2513074 L320.558108,41.8219084 L320.558108,41.8219084 Z M345.569786,50.8061488 C348.468017,50.8061488 351.01972,49.3297177 352.468835,47.0993642 L348.688534,44.4292229 C348.058484,45.5915197 346.955896,46.3768554 345.569786,46.3768554 C343.616631,46.3768554 342.167515,44.8690109 342.167515,42.7014843 C342.167515,40.5339578 343.616631,39.0261133 345.569786,39.0261133 C346.955896,39.0261133 348.058484,39.811449 348.688534,40.9737458 L352.468835,38.3036044 C351.01972,36.073251 348.468017,34.5968199 345.569786,34.5968199 C341.033426,34.5968199 337.379134,38.2407776 337.379134,42.7014843 C337.379134,47.1621911 341.033426,50.8061488 345.569786,50.8061488 L345.569786,50.8061488 L345.569786,50.8061488 Z M365.227351,50.5548414 L369.98423,50.5548414 L369.98423,34.8481273 L359.493894,34.8481273 L359.493894,28.2513074 L354.737016,28.2513074 L354.737016,50.5548414 L359.493894,50.5548414 L359.493894,39.5601415 L365.227351,39.5601415 L365.227351,50.5548414 L365.227351,50.5548414 Z M380.978605,46.3768554 C379.025449,46.3768554 377.576334,44.8690109 377.576334,42.7014843 C377.576334,40.5339578 379.025449,39.0261133 380.978605,39.0261133 C382.93176,39.0261133 384.380876,40.5339578 384.380876,42.7014843 C384.380876,44.8690109 382.93176,46.3768554 380.978605,46.3768554 L380.978605,46.3768554 L380.978605,46.3768554 Z M380.978605,50.8061488 C385.514966,50.8061488 389.169257,47.1621911 389.169257,42.7014843 C389.169257,38.2407776 385.514966,34.5968199 380.978605,34.5968199 C376.442244,34.5968199 372.787953,38.2407776 372.787953,42.7014843 C372.787953,47.1621911 376.442244,50.8061488 380.978605,50.8061488 L380.978605,50.8061488 L380.978605,50.8061488 Z M399.250059,46.3768554 C397.296904,46.3768554 395.847788,44.8690109 395.847788,42.7014843 C395.847788,40.5339578 397.296904,39.0261133 399.250059,39.0261133 C401.203215,39.0261133 402.652329,40.5339578 402.652329,42.7014843 C402.652329,44.8690109 401.203215,46.3768554 399.250059,46.3768554 L399.250059,46.3768554 L399.250059,46.3768554 Z M399.250059,50.8061488 C403.78642,50.8061488 407.440711,47.1621911 407.440711,42.7014843 C407.440711,38.2407776 403.78642,34.5968199 399.250059,34.5968199 C394.713698,34.5968199 391.059407,38.2407776 391.059407,42.7014843 C391.059407,47.1621911 394.713698,50.8061488 399.250059,50.8061488 L399.250059,50.8061488 L399.250059,50.8061488 Z M415,50.5548414 L415,28.2513074 L410.243122,28.2513074 L410.243122,50.5548414 L415,50.5548414 Z" id="TNDS-LOGO"></path>
        </g>
    </g>
</svg>
</svg>
